<svg width="1600" height="820" viewBox="0 0 1600 820" preserveAspectRatio="xMidYMid meet" xmlns="http://www.w3.org/2000/svg">
  <defs>
    <linearGradient id="accentText" x1="0" y1="0" x2="1" y2="0">
      <stop offset="0" stop-color="#3B82F6"/>
      <stop offset="0.5" stop-color="#06B6D4"/>
      <stop offset="1" stop-color="#8B5CF6"/>
    </linearGradient>

    <linearGradient id="borderGrad" x1="0" y1="0" x2="1" y2="1">
      <stop offset="0" stop-color="#3B82F6" stop-opacity="0.55"/>
      <stop offset="1" stop-color="#8B5CF6" stop-opacity="0.35"/>
    </linearGradient>

    <linearGradient id="panelFill" x1="0" y1="0" x2="0" y2="1">
      <stop offset="0" stop-color="#FFFFFF" stop-opacity="0.055"/>
      <stop offset="1" stop-color="#FFFFFF" stop-opacity="0.015"/>
    </linearGradient>

    <linearGradient id="lineGrad" x1="0" y1="0" x2="1" y2="0">
      <stop offset="0" stop-color="#3B82F6" stop-opacity="0.55"/>
      <stop offset="1" stop-color="#8B5CF6" stop-opacity="0.55"/>
    </linearGradient>

    <radialGradient id="bgGlowBlue" cx="50%" cy="50%" r="50%">
      <stop offset="0" stop-color="#3B82F6" stop-opacity="0.28"/>
      <stop offset="1" stop-color="#3B82F6" stop-opacity="0"/>
    </radialGradient>
    <radialGradient id="bgGlowPurple" cx="50%" cy="50%" r="50%">
      <stop offset="0" stop-color="#8B5CF6" stop-opacity="0.24"/>
      <stop offset="1" stop-color="#8B5CF6" stop-opacity="0"/>
    </radialGradient>
    <radialGradient id="bgGlowCyan" cx="50%" cy="50%" r="50%">
      <stop offset="0" stop-color="#06B6D4" stop-opacity="0.2"/>
      <stop offset="1" stop-color="#06B6D4" stop-opacity="0"/>
    </radialGradient>

    <filter id="blurLg" x="-60%" y="-60%" width="220%" height="220%">
      <feGaussianBlur stdDeviation="50"/>
    </filter>
    <filter id="blurSm" x="-60%" y="-60%" width="220%" height="220%">
      <feGaussianBlur stdDeviation="3"/>
    </filter>

    <filter id="dropShadow" x="-50%" y="-50%" width="200%" height="200%">
      <feDropShadow dx="0" dy="10" stdDeviation="14" flood-color="#000000" flood-opacity="0.45"/>
    </filter>

    <filter id="avatarGlow" x="-80%" y="-80%" width="260%" height="260%">
      <feGaussianBlur stdDeviation="10"/>
    </filter>

    <linearGradient id="glassShine" x1="0" y1="0" x2="0" y2="1">
      <stop offset="0" stop-color="#FFFFFF" stop-opacity="0.10"/>
      <stop offset="0.5" stop-color="#FFFFFF" stop-opacity="0.02"/>
      <stop offset="1" stop-color="#FFFFFF" stop-opacity="0"/>
    </linearGradient>

    <linearGradient id="ringGrad" x1="0" y1="0" x2="1" y2="1">
      <stop offset="0" stop-color="#3B82F6"/>
      <stop offset="0.5" stop-color="#06B6D4"/>
      <stop offset="1" stop-color="#8B5CF6"/>
    </linearGradient>

    <linearGradient id="flutterGrad" x1="0" y1="0" x2="1" y2="1">
      <stop offset="0" stop-color="#54C5F8"/>
      <stop offset="1" stop-color="#01579B"/>
    </linearGradient>

    <clipPath id="avatarClip2"><circle cx="0" cy="0" r="40"/></clipPath>

    <pattern id="gridPattern" width="42" height="42" patternUnits="userSpaceOnUse">
      <path d="M0 0H42V42" fill="none" stroke="#9CA3AF" stroke-opacity="0.06" stroke-width="1"/>
    </pattern>

    <clipPath id="editorClip"><rect x="880" y="90" width="340" height="215" rx="14"/></clipPath>
    <clipPath id="browserClip"><rect x="1240" y="100" width="300" height="180" rx="14"/></clipPath>
    <clipPath id="termClip"><rect x="890" y="350" width="280" height="150" rx="14"/></clipPath>
  </defs>

  <rect width="1600" height="820" fill="#0D1117"/>
  <rect width="1600" height="820" fill="url(#gridPattern)"/>

  <g transform="translate(0,90)">
  <circle cx="1260" cy="150" r="220" fill="url(#bgGlowBlue)" filter="url(#blurLg)">
    <animate attributeName="opacity" values="0.7;1;0.7" dur="8s" repeatCount="indefinite"/>
  </circle>
  <circle cx="1420" cy="460" r="260" fill="url(#bgGlowPurple)" filter="url(#blurLg)">
    <animate attributeName="opacity" values="0.8;1;0.8" dur="9s" repeatCount="indefinite"/>
  </circle>
  <circle cx="960" cy="470" r="190" fill="url(#bgGlowCyan)" filter="url(#blurLg)">
    <animate attributeName="opacity" values="0.6;1;0.6" dur="10s" repeatCount="indefinite"/>
  </circle>
  <circle cx="160" cy="500" r="150" fill="url(#bgGlowBlue)" filter="url(#blurLg)" opacity="0.35"/>

  <g>
    <circle cx="150" cy="110" r="2" fill="#3B82F6" opacity="0.6"><animate attributeName="cy" values="110;85;110" dur="6s" repeatCount="indefinite"/></circle>
    <circle cx="700" cy="180" r="2.2" fill="#06B6D4" opacity="0.5"><animate attributeName="cy" values="180;155;180" dur="7s" repeatCount="indefinite"/></circle>
    <circle cx="800" cy="480" r="2" fill="#8B5CF6" opacity="0.55"><animate attributeName="cy" values="480;455;480" dur="8s" repeatCount="indefinite"/></circle>
    <circle cx="1550" cy="200" r="2.4" fill="#3B82F6" opacity="0.5"><animate attributeName="cy" values="200;175;200" dur="6.5s" repeatCount="indefinite"/></circle>
    <circle cx="1230" cy="540" r="2" fill="#06B6D4" opacity="0.45"><animate attributeName="cy" values="540;515;540" dur="7.5s" repeatCount="indefinite"/></circle>
    <circle cx="1010" cy="100" r="1.8" fill="#8B5CF6" opacity="0.5"><animate attributeName="cy" values="100;78;100" dur="9s" repeatCount="indefinite"/></circle>
    <circle cx="1500" cy="530" r="1.8" fill="#3B82F6" opacity="0.4"><animate attributeName="cy" values="530;508;530" dur="6.8s" repeatCount="indefinite"/></circle>
  </g>

  <circle cx="1520" cy="90" r="26" fill="none" stroke="#8B5CF6" stroke-opacity="0.25" stroke-width="1"/>
  <rect x="1500" y="480" width="30" height="30" fill="none" stroke="#06B6D4" stroke-opacity="0.2" stroke-width="1" transform="rotate(20 1515 495)"/>
  <circle cx="840" cy="380" r="4" fill="none" stroke="#3B82F6" stroke-opacity="0.3" stroke-width="1"/>

  <g font-family="'Segoe UI','Inter',-apple-system,sans-serif" transform="translate(-21,-42) scale(1.3)">
    <text x="68" y="150" font-size="50" font-weight="800" letter-spacing="-1.5" fill="url(#accentText)">Md. Abdullah Al Siddik</text>
    <text x="70" y="184" font-size="20" font-weight="600" fill="url(#accentText)">Flutter &amp; Dart Developer (Mobile &amp; Desktop)</text>

    <text x="70" y="218" font-size="15" fill="#9CA3AF">Building scalable POS, e-commerce, logistics, and depot management apps</text>
    <text x="70" y="240" font-size="15" fill="#9CA3AF">with clean architecture, GetX state management, and offline-first sync.</text>

    <g font-size="13" fill="#9CA3AF" font-family="'Segoe UI','Inter',-apple-system,sans-serif">
      <g transform="translate(70,257)" stroke="#06B6D4" stroke-width="1.4" fill="none" stroke-linejoin="round" stroke-linecap="round">
        <rect x="0" y="0" width="17" height="13" rx="2"/>
        <path d="M1,2 L8.5,8.5 L16,2"/>
      </g>
      <text x="94" y="268">mabdullahalsiddik@gmail.com</text>

      <g transform="translate(360,257)" stroke="#8B5CF6" stroke-width="1.4" fill="none" stroke-linejoin="round" stroke-linecap="round">
        <path d="M1,1 H8 L9,4 L6.5,5.5 C7.3,7.3 8.7,8.7 10.5,9.5 L12,7 L15,8 V11 C15,11.6 14.6,12 14,12 C6.8,12 1,6.2 1,1 Z"/>
      </g>
      <text x="378" y="268">facebook.com/mdabdullahalsiddik2000</text>

      <g transform="translate(70,279)" stroke="#3B82F6" stroke-width="1.5" fill="none" stroke-linejoin="round" stroke-linecap="round">
        <path d="M6,2.5 L7.5,1 C8.6,-0.1 10.4,-0.1 11.5,1 C12.6,2.1 12.6,3.9 11.5,5 L10,6.5"/>
        <path d="M8,9.5 L6.5,11 C5.4,12.1 3.6,12.1 2.5,11 C1.4,9.9 1.4,8.1 2.5,7 L4,5.5"/>
      </g>
      <text x="94" y="290">linkedin.com/in/md-abdullah-al-siddik-sid</text>

      <g transform="translate(430,279)" stroke="#06B6D4" stroke-width="1.5" fill="none" stroke-linejoin="round" stroke-linecap="round">
        <path d="M4.5,1 L0.5,6 L4.5,11"/>
        <path d="M8,1 L12,6 L8,11"/>
      </g>
      <text x="452" y="290">github.com/mdabdullahalsiddik</text>
    </g>

    <g font-size="12.5" font-weight="600" fill="#E5E7EB">
      <rect x="70" y="316" width="90" height="34" rx="17" fill="url(#panelFill)" stroke="url(#borderGrad)"/>
      <text x="115" y="338" text-anchor="middle">Flutter</text>

      <rect x="170" y="316" width="75" height="34" rx="17" fill="url(#panelFill)" stroke="url(#borderGrad)"/>
      <text x="207" y="338" text-anchor="middle">Dart</text>

      <rect x="255" y="316" width="75" height="34" rx="17" fill="url(#panelFill)" stroke="url(#borderGrad)"/>
      <text x="292" y="338" text-anchor="middle">GetX</text>

      <rect x="340" y="316" width="110" height="34" rx="17" fill="url(#panelFill)" stroke="url(#borderGrad)"/>
      <text x="395" y="338" text-anchor="middle">Firebase</text>

      <rect x="460" y="316" width="90" height="34" rx="17" fill="url(#panelFill)" stroke="url(#borderGrad)"/>
      <text x="505" y="338" text-anchor="middle">SQLite</text>

      <rect x="560" y="316" width="110" height="34" rx="17" fill="url(#panelFill)" stroke="url(#borderGrad)"/>
      <text x="615" y="338" text-anchor="middle">Android</text>

      <rect x="70" y="360" width="110" height="34" rx="17" fill="url(#panelFill)" stroke="url(#borderGrad)"/>
      <text x="125" y="382" text-anchor="middle">REST API</text>

      <rect x="190" y="360" width="65" height="34" rx="17" fill="url(#panelFill)" stroke="url(#borderGrad)"/>
      <text x="222" y="382" text-anchor="middle">Git</text>

      <rect x="265" y="360" width="95" height="34" rx="17" fill="url(#panelFill)" stroke="url(#borderGrad)"/>
      <text x="312" y="382" text-anchor="middle">GitHub</text>

      <rect x="370" y="360" width="100" height="34" rx="17" fill="url(#panelFill)" stroke="url(#borderGrad)"/>
      <text x="420" y="382" text-anchor="middle">Python</text>

      <rect x="480" y="360" width="90" height="34" rx="17" fill="url(#panelFill)" stroke="url(#borderGrad)"/>
      <text x="525" y="382" text-anchor="middle">Figma</text>

      <rect x="70" y="404" width="100" height="34" rx="17" fill="url(#panelFill)" stroke="url(#borderGrad)"/>
      <text x="120" y="426" text-anchor="middle">VS Code</text>

      <rect x="180" y="404" width="140" height="34" rx="17" fill="url(#panelFill)" stroke="url(#borderGrad)"/>
      <text x="250" y="426" text-anchor="middle">Android Studio</text>

      <rect x="330" y="404" width="65" height="34" rx="17" fill="url(#panelFill)" stroke="url(#borderGrad)"/>
      <text x="362" y="426" text-anchor="middle">iOS</text>

      <rect x="405" y="404" width="70" height="34" rx="17" fill="url(#panelFill)" stroke="url(#borderGrad)"/>
      <text x="440" y="426" text-anchor="middle">Web</text>

      <rect x="485" y="404" width="105" height="34" rx="17" fill="url(#panelFill)" stroke="url(#borderGrad)"/>
      <text x="537" y="426" text-anchor="middle">Desktop</text>

      <rect x="70" y="448" width="120" height="34" rx="17" fill="url(#panelFill)" stroke="url(#borderGrad)"/>
      <text x="130" y="470" text-anchor="middle">WebSocket</text>

      <rect x="200" y="448" width="180" height="34" rx="17" fill="url(#panelFill)" stroke="url(#borderGrad)"/>
      <text x="290" y="470" text-anchor="middle">Push Notification</text>
    </g>

    <g>
      <rect x="70" y="490" width="190" height="86" rx="16" fill="url(#panelFill)" stroke="url(#borderGrad)" filter="url(#dropShadow)"/>
      <text x="165" y="532" text-anchor="middle" font-size="30" font-weight="800" fill="url(#accentText)">1+</text>
      <text x="165" y="557" text-anchor="middle" font-size="11.5" fill="#9CA3AF" letter-spacing="0.3">Years Building Production Apps</text>

      <rect x="280" y="490" width="190" height="86" rx="16" fill="url(#panelFill)" stroke="url(#borderGrad)" filter="url(#dropShadow)"/>
      <text x="375" y="532" text-anchor="middle" font-size="30" font-weight="800" fill="url(#accentText)">10+</text>
      <text x="375" y="557" text-anchor="middle" font-size="11.5" fill="#9CA3AF" letter-spacing="0.3">Production Apps</text>
    </g>
  </g>

  <g fill="none" stroke="url(#lineGrad)" stroke-width="1.3" opacity="0.55">
    <path d="M1050,205 C1000,220 970,260 995,300" />
    <path d="M1220,300 C1260,295 1300,290 1350,290" />
    <path d="M1030,340 C1000,360 970,400 990,430" />
  </g>
  <circle r="3" fill="#06B6D4">
    <animateMotion path="M1050,205 C1000,220 970,260 995,300" dur="3.2s" repeatCount="indefinite"/>
  </circle>
  <circle r="3" fill="#8B5CF6">
    <animateMotion path="M1220,300 C1260,295 1300,290 1350,290" dur="3.4s" repeatCount="indefinite"/>
  </circle>

  <g stroke="url(#lineGrad)" stroke-width="1" opacity="0.6" fill="none">
    <line x1="1080" y1="240" x2="1025" y2="192"/>
    <line x1="1080" y1="240" x2="1142" y2="196"/>
    <line x1="1080" y1="240" x2="1015" y2="288"/>
    <line x1="1080" y1="240" x2="1148" y2="298"/>
    <line x1="1080" y1="240" x2="1082" y2="182"/>
  </g>
  <circle r="2.6" fill="#3B82F6"><animateMotion path="M1080,240 L1142,196" dur="2.6s" repeatCount="indefinite"/></circle>
  <g fill="url(#panelFill)" stroke="url(#accentText)" stroke-width="1.4">
    <polygon points="1080,222 1096,231 1096,249 1080,258 1064,249 1064,231"/>
  </g>
  <g fill="#0D1117" stroke="url(#accentText)" stroke-width="1.4">
    <circle cx="1025" cy="192" r="6"/>
    <circle cx="1142" cy="196" r="6"/>
    <circle cx="1015" cy="288" r="6"/>
    <circle cx="1148" cy="298" r="6"/>
    <circle cx="1082" cy="182" r="5"/>
  </g>

  <g transform="translate(1180,300)">
    <circle r="50" fill="none" stroke="url(#borderGrad)" stroke-width="1.3" opacity="0.4"/>
    <g>
      <animateTransform attributeName="transform" type="scale" values="1;1.06;1" dur="3.2s" repeatCount="indefinite"/>
      <polygon points="-10,-44 34,-44 -10,0 8,18 34,18 -10,44 -34,20 -8,-6" fill="url(#flutterGrad)"/>
      <polygon points="8,18 34,18 -10,44 -34,20" fill="#01579B" opacity="0.85"/>
    </g>
    <circle r="6" fill="#06B6D4"/>
  </g>

  <g>
    <rect x="1326" y="288" width="88" height="44" fill="url(#panelFill)"/>
    <line x1="1326" y1="288" x2="1326" y2="332" stroke="url(#borderGrad)" stroke-width="1.2"/>
    <line x1="1414" y1="288" x2="1414" y2="332" stroke="url(#borderGrad)" stroke-width="1.2"/>
    <line x1="1326" y1="304" x2="1414" y2="304" stroke="#9CA3AF" stroke-opacity="0.15" stroke-width="1"/>
    <line x1="1326" y1="318" x2="1414" y2="318" stroke="#9CA3AF" stroke-opacity="0.15" stroke-width="1"/>
    <ellipse cx="1370" cy="288" rx="44" ry="10" fill="url(#panelFill)" stroke="url(#borderGrad)" stroke-width="1.2"/>
    <ellipse cx="1370" cy="332" rx="44" ry="10" fill="url(#panelFill)" stroke="url(#borderGrad)" stroke-width="1.2"/>
  </g>

  <g fill="url(#panelFill)" stroke="url(#borderGrad)" stroke-width="1.2">
    <circle cx="1502" cy="398" r="16"/>
    <circle cx="1532" cy="386" r="20"/>
    <circle cx="1562" cy="398" r="14"/>
    <rect x="1492" y="398" width="86" height="20" rx="10"/>
  </g>

  <g>
    <animateTransform attributeName="transform" type="translate" values="0,0; 0,-9; 0,0" dur="6.5s" repeatCount="indefinite"/>
    <rect x="880" y="90" width="340" height="215" rx="14" fill="url(#panelFill)" stroke="url(#borderGrad)" stroke-width="1.2" filter="url(#dropShadow)"/>
    <rect x="880" y="90" width="340" height="107" rx="14" fill="url(#glassShine)"/>
    <g clip-path="url(#editorClip)">
      <rect x="880" y="90" width="340" height="32" fill="#FFFFFF" opacity="0.03"/>
      <circle cx="898" cy="106" r="5" fill="#FF5F56"/>
      <circle cx="914" cy="106" r="5" fill="#FFBD2E"/>
      <circle cx="930" cy="106" r="5" fill="#27C93F"/>
      <text x="1200" y="110" text-anchor="end" font-family="'SFMono-Regular',Consolas,monospace" font-size="11" fill="#9CA3AF">home_controller.dart</text>

      <g font-family="'SFMono-Regular',Consolas,monospace" font-size="13">
        <text x="900" y="148"><tspan fill="#8B5CF6">class</tspan><tspan fill="#FFFFFF"> HomeController </tspan><tspan fill="#8B5CF6">extends</tspan><tspan fill="#06B6D4"> GetxController</tspan><tspan fill="#9CA3AF"> {</tspan></text>
        <text x="922" y="174"><tspan fill="#8B5CF6">final</tspan><tspan fill="#FFFFFF"> items </tspan><tspan fill="#9CA3AF">= &lt;</tspan><tspan fill="#06B6D4">Item</tspan><tspan fill="#9CA3AF">&gt;[].</tspan><tspan fill="#06B6D4">obs</tspan><tspan fill="#9CA3AF">;</tspan></text>
        <text x="900" y="200" fill="#9CA3AF">}</text>
        <text x="900" y="226" fill="#4B5563" font-style="italic">// production ready</text>
      </g>
      <rect x="900" y="216" width="7" height="14" fill="#3B82F6">
        <animate attributeName="opacity" values="1;0;1" dur="1s" repeatCount="indefinite"/>
      </rect>
    </g>
  </g>

  <g>
    <animateTransform attributeName="transform" type="translate" values="0,0; 0,-7; 0,0" dur="7.5s" repeatCount="indefinite"/>
    <rect x="1240" y="100" width="300" height="180" rx="14" fill="url(#panelFill)" stroke="url(#borderGrad)" stroke-width="1.2" filter="url(#dropShadow)"/>
    <rect x="1240" y="100" width="300" height="90" rx="14" fill="url(#glassShine)"/>
    <g clip-path="url(#browserClip)">
      <rect x="1240" y="100" width="300" height="30" fill="#FFFFFF" opacity="0.03"/>
      <circle cx="1258" cy="115" r="4" fill="#FF5F56"/>
      <circle cx="1272" cy="115" r="4" fill="#FFBD2E"/>
      <circle cx="1286" cy="115" r="4" fill="#27C93F"/>
      <rect x="1310" y="107" width="210" height="16" rx="8" fill="#161B22" stroke="#30363D" stroke-width="1"/>
      <rect x="1258" y="148" width="264" height="14" rx="4" fill="#FFFFFF" opacity="0.05"/>
      <rect x="1258" y="172" width="124" height="90" rx="8" fill="url(#panelFill)" stroke="url(#borderGrad)" stroke-width="1"/>
      <rect x="1394" y="172" width="128" height="90" rx="8" fill="url(#panelFill)" stroke="url(#borderGrad)" stroke-width="1"/>
      <rect x="1270" y="184" width="80" height="6" rx="3" fill="#9CA3AF" opacity="0.35"/>
      <rect x="1270" y="198" width="96" height="6" rx="3" fill="#9CA3AF" opacity="0.22"/>
      <rect x="1406" y="184" width="90" height="6" rx="3" fill="#9CA3AF" opacity="0.35"/>
      <rect x="1406" y="198" width="70" height="6" rx="3" fill="#9CA3AF" opacity="0.22"/>
    </g>
  </g>

  <g>
    <animateTransform attributeName="transform" type="translate" values="0,0; 0,-8; 0,0" dur="8s" repeatCount="indefinite"/>
    <rect x="890" y="350" width="280" height="150" rx="14" fill="url(#panelFill)" stroke="url(#borderGrad)" stroke-width="1.2" filter="url(#dropShadow)"/>
    <rect x="890" y="350" width="280" height="75" rx="14" fill="url(#glassShine)"/>
    <g clip-path="url(#termClip)">
      <rect x="890" y="350" width="280" height="28" fill="#FFFFFF" opacity="0.03"/>
      <circle cx="906" cy="364" r="4" fill="#FF5F56"/>
      <circle cx="920" cy="364" r="4" fill="#FFBD2E"/>
      <circle cx="934" cy="364" r="4" fill="#27C93F"/>
      <text x="1160" y="368" text-anchor="end" font-family="'SFMono-Regular',Consolas,monospace" font-size="11" fill="#9CA3AF">zsh</text>

      <g font-family="'SFMono-Regular',Consolas,monospace" font-size="12.5">
        <text x="908" y="400"><tspan fill="#06B6D4">➜</tspan><tspan fill="#9CA3AF"> ~/project </tspan><tspan fill="#FFFFFF">flutter build apk --release</tspan></text>
        <text x="908" y="422" fill="#8B5CF6">Built build/app/outputs/flutter-apk/app-release.apk</text>
        <text x="908" y="444"><tspan fill="#06B6D4">➜</tspan><tspan fill="#9CA3AF"> ~/project </tspan></text>
      </g>
      <rect x="960" y="434" width="7" height="14" fill="#06B6D4">
        <animate attributeName="opacity" values="1;0;1" dur="1s" repeatCount="indefinite"/>
      </rect>
    </g>
  </g>

  <g>
    <animateTransform attributeName="transform" type="translate" values="0,0; 0,-6; 0,0" dur="7s" repeatCount="indefinite"/>
    <rect x="1185" y="345" width="280" height="205" rx="14" fill="url(#panelFill)" stroke="url(#borderGrad)" stroke-width="1.2" filter="url(#dropShadow)"/>
    <rect x="1185" y="345" width="280" height="102" rx="14" fill="url(#glassShine)"/>
    <g>
      <rect x="1185" y="345" width="280" height="28" fill="#FFFFFF" opacity="0.03" rx="14"/>
      <circle cx="1201" cy="359" r="4" fill="#FF5F56"/>
      <circle cx="1215" cy="359" r="4" fill="#FFBD2E"/>
      <circle cx="1229" cy="359" r="4" fill="#27C93F"/>
      <text x="1325" y="363" text-anchor="middle" font-family="'SFMono-Regular',Consolas,monospace" font-size="11" font-weight="600" fill="#9CA3AF" letter-spacing="0.5">DHAKA (GMT+6)</text>

      <circle cx="1325" cy="432" r="52" fill="#0D1117" stroke="url(#borderGrad)" stroke-width="2"/>

      <g stroke="#4B5563" stroke-width="2" stroke-linecap="round">
        <line x1="1325" y1="380" x2="1325" y2="387"/>
        <line x1="1325" y1="380" x2="1325" y2="387" transform="rotate(30, 1325, 432)"/>
        <line x1="1325" y1="380" x2="1325" y2="387" transform="rotate(60, 1325, 432)"/>
        <line x1="1325" y1="380" x2="1325" y2="387" transform="rotate(90, 1325, 432)"/>
        <line x1="1325" y1="380" x2="1325" y2="387" transform="rotate(120, 1325, 432)"/>
        <line x1="1325" y1="380" x2="1325" y2="387" transform="rotate(150, 1325, 432)"/>
        <line x1="1325" y1="380" x2="1325" y2="387" transform="rotate(180, 1325, 432)"/>
        <line x1="1325" y1="380" x2="1325" y2="387" transform="rotate(210, 1325, 432)"/>
        <line x1="1325" y1="380" x2="1325" y2="387" transform="rotate(240, 1325, 432)"/>
        <line x1="1325" y1="380" x2="1325" y2="387" transform="rotate(270, 1325, 432)"/>
        <line x1="1325" y1="380" x2="1325" y2="387" transform="rotate(300, 1325, 432)"/>
        <line x1="1325" y1="380" x2="1325" y2="387" transform="rotate(330, 1325, 432)"/>
      </g>
      <g transform="translate(1325,432)">
        <g>
          <animateTransform attributeName="transform" type="rotate" from="114.5" to="474.5" dur="43200s" repeatCount="indefinite"/>
          <line x1="0" y1="0" x2="0" y2="-25" stroke="#E5E7EB" stroke-width="3.5" stroke-linecap="round"/>
        </g>
        <g>
          <animateTransform attributeName="transform" type="rotate" from="298.8" to="658.8" dur="3600s" repeatCount="indefinite"/>
          <line x1="0" y1="0" x2="0" y2="-38" stroke="#9CA3AF" stroke-width="2.5" stroke-linecap="round"/>
        </g>
        <g>
          <animateTransform attributeName="transform" type="rotate" from="288" to="648" dur="60s" repeatCount="indefinite"/>
          <line x1="0" y1="8" x2="0" y2="-46" stroke="#06B6D4" stroke-width="1.5" stroke-linecap="round"/>
        </g>
        <circle cx="0" cy="0" r="4" fill="#E5E7EB"/>
        <circle cx="0" cy="0" r="1.5" fill="#06B6D4"/>
      </g>

      <text x="1325" y="512" text-anchor="middle" font-family="'SFMono-Regular',Consolas,monospace" font-size="17" font-weight="700" fill="#E5E7EB" letter-spacing="1">01:10:27 <tspan font-size="12" fill="#06B6D4">PM</tspan></text>
      <text x="1325" y="532" text-anchor="middle" font-family="'Segoe UI','Inter',sans-serif" font-size="10" font-weight="600" fill="#9CA3AF" letter-spacing="0.8">Saturday, 11 Jul 2026</text>
    </g>
  </g>


  <g>
    <animateTransform attributeName="transform" type="translate" values="0,0; 0,-5; 0,0" dur="7.8s" repeatCount="indefinite"/>
    <rect x="900" y="592" width="270" height="120" rx="14" fill="url(#panelFill)" stroke="url(#borderGrad)" stroke-width="1.2" filter="url(#dropShadow)"/>
    <rect x="900" y="592" width="270" height="60" rx="14" fill="url(#glassShine)"/>
    <clipPath id="flutterCodeClip"><rect x="900" y="592" width="270" height="120" rx="14"/></clipPath>
    <g clip-path="url(#flutterCodeClip)">
      <circle cx="912" cy="606" r="4" fill="#FF5F56"/>
      <circle cx="926" cy="606" r="4" fill="#FFBD2E"/>
      <circle cx="940" cy="606" r="4" fill="#27C93F"/>
      <text x="1160" y="610" text-anchor="end" font-family="'SFMono-Regular',Consolas,monospace" font-size="10" fill="#9CA3AF">main.dart</text>

      <g font-family="'SFMono-Regular',Consolas,monospace" font-size="11.5">
        <text x="912" y="634"><tspan fill="#8B5CF6">import</tspan><tspan fill="#FFFFFF"> 'package:flutter/material.dart'</tspan><tspan fill="#9CA3AF">;</tspan></text>
        <text x="912" y="654"><tspan fill="#8B5CF6">void</tspan><tspan fill="#06B6D4"> main</tspan><tspan fill="#9CA3AF">() => </tspan><tspan fill="#06B6D4">runApp</tspan><tspan fill="#9CA3AF">(</tspan><tspan fill="#FFFFFF">MyApp</tspan><tspan fill="#9CA3AF">());</tspan></text>
        <text x="912" y="674"><tspan fill="#8B5CF6">class</tspan><tspan fill="#FFFFFF"> MyApp </tspan><tspan fill="#8B5CF6">extends</tspan><tspan fill="#06B6D4"> StatelessWidget</tspan><tspan fill="#9CA3AF"> {</tspan></text>
        <text x="934" y="694"><tspan fill="#8B5CF6">build</tspan><tspan fill="#9CA3AF">(</tspan><tspan fill="#FFFFFF">ctx</tspan><tspan fill="#9CA3AF">) => </tspan><tspan fill="#06B6D4">GetMaterialApp</tspan><tspan fill="#9CA3AF">();</tspan></text>
      </g>
      <rect x="912" y="662" width="7" height="13" fill="#3B82F6">
        <animate attributeName="opacity" values="1;0;1" dur="1s" repeatCount="indefinite"/>
      </rect>
      <rect x="900" y="614" width="270" height="16" fill="url(#accentText)" opacity="0.06">
        <animate attributeName="y" values="614;700;614" dur="6s" repeatCount="indefinite"/>
      </rect>
    </g>
  </g>

  <g opacity="0.55">
    <g transform="translate(1500,130) scale(0.32)">
      <animateTransform attributeName="transform" type="rotate" additive="sum" from="0 0 0" to="360 0 0" dur="40s" repeatCount="indefinite"/>
      <polygon points="-10,-44 34,-44 -10,0 8,18 34,18 -10,44 -34,20 -8,-6" fill="url(#flutterGrad)" opacity="0.5"/>
    </g>
    <g transform="translate(150,470) scale(0.24)">
      <animateTransform attributeName="transform" type="rotate" additive="sum" from="360 0 0" to="0 0 0" dur="34s" repeatCount="indefinite"/>
      <polygon points="-10,-44 34,-44 -10,0 8,18 34,18 -10,44 -34,20 -8,-6" fill="#29B6F6" opacity="0.4"/>
    </g>
  </g>

  <g opacity="0.5">
    <g transform="scale(0.2)">
      <polygon points="-10,-44 34,-44 -10,0 8,18 34,18 -10,44 -34,20 -8,-6" fill="#54C5F8"/>
      <animateMotion path="M120,650 C160,500 90,350 140,200 C170,110 120,40 150,-40" dur="16s" repeatCount="indefinite"/>
      <animateTransform attributeName="transform" type="rotate" from="0" to="360" dur="7s" repeatCount="indefinite" additive="sum"/>
      <animate attributeName="opacity" values="0;0.6;0.6;0" dur="16s" repeatCount="indefinite"/>
    </g>
    <g transform="scale(0.16)">
      <polygon points="-10,-44 34,-44 -10,0 8,18 34,18 -10,44 -34,20 -8,-6" fill="#0288D1"/>
      <animateMotion path="M1300,720 C1340,560 1420,480 1380,320 C1350,220 1420,120 1390,20" dur="19s" repeatCount="indefinite" begin="3s"/>
      <animateTransform attributeName="transform" type="rotate" from="360" to="0" dur="8s" repeatCount="indefinite" additive="sum"/>
      <animate attributeName="opacity" values="0;0.5;0.5;0" dur="19s" begin="3s" repeatCount="indefinite"/>
    </g>
    <g transform="scale(0.13)">
      <polygon points="-10,-44 34,-44 -10,0 8,18 34,18 -10,44 -34,20 -8,-6" fill="#42A5F5"/>
      <animateMotion path="M760,730 C800,600 700,470 760,340 C800,250 730,150 770,30" dur="14s" repeatCount="indefinite" begin="1.5s"/>
      <animateTransform attributeName="transform" type="rotate" from="0" to="-360" dur="6s" repeatCount="indefinite" additive="sum"/>
      <animate attributeName="opacity" values="0;0.55;0.55;0" dur="14s" begin="1.5s" repeatCount="indefinite"/>
    </g>
    <g transform="scale(0.11)">
      <polygon points="-10,-44 34,-44 -10,0 8,18 34,18 -10,44 -34,20 -8,-6" fill="#01579B"/>
      <animateMotion path="M1560,600 C1520,470 1590,350 1540,220 C1510,140 1570,60 1530,-30" dur="17s" repeatCount="indefinite" begin="5s"/>
      <animateTransform attributeName="transform" type="rotate" from="0" to="360" dur="9s" repeatCount="indefinite" additive="sum"/>
      <animate attributeName="opacity" values="0;0.45;0.45;0" dur="17s" begin="5s" repeatCount="indefinite"/>
    </g>
  </g>

  <g font-family="'SFMono-Regular',Consolas,monospace" fill="#3B82F6" opacity="0.16">
    <text x="1470" y="60" font-size="12"><animate attributeName="opacity" values="0;0.22;0" dur="9s" repeatCount="indefinite"/>Widget build()</text>
    <text x="60" y="560" font-size="12" fill="#8B5CF6"><animate attributeName="opacity" values="0;0.2;0" dur="11s" begin="2s" repeatCount="indefinite"/>setState(() {});</text>
    <text x="1440" y="560" font-size="12" fill="#06B6D4"><animate attributeName="opacity" values="0;0.2;0" dur="10s" begin="4s" repeatCount="indefinite"/>Obx(() =&gt; ...)</text>
    <text x="120" y="60" font-size="12" fill="#3B82F6"><animate attributeName="opacity" values="0;0.2;0" dur="8s" begin="1s" repeatCount="indefinite"/>class Controller</text>
  </g>

  <g font-family="'SFMono-Regular',Consolas,monospace" font-size="11" opacity="0">
    <text x="80" y="700" fill="#06B6D4">
      <animate attributeName="opacity" values="0;0.24;0" dur="10s" begin="0.5s" repeatCount="indefinite"/>
      <animate attributeName="y" values="700;60" dur="10s" begin="0.5s" repeatCount="indefinite"/>
      final controller = Get.put(HomeController());
    </text>
    <text x="1200" y="700" fill="#8B5CF6">
      <animate attributeName="opacity" values="0;0.22;0" dur="12s" begin="3s" repeatCount="indefinite"/>
      <animate attributeName="y" values="700;60" dur="12s" begin="3s" repeatCount="indefinite"/>
      RxList&lt;Item&gt; items = &lt;Item&gt;[].obs;
    </text>
    <text x="650" y="700" fill="#3B82F6">
      <animate attributeName="opacity" values="0;0.2;0" dur="9s" begin="6s" repeatCount="indefinite"/>
      <animate attributeName="y" values="700;60" dur="9s" begin="6s" repeatCount="indefinite"/>
      Navigator.push(context, route);
    </text>
    <text x="1550" y="700" fill="#06B6D4">
      <animate attributeName="opacity" values="0;0.22;0" dur="11s" begin="8s" repeatCount="indefinite"/>
      <animate attributeName="y" values="700;60" dur="11s" begin="8s" repeatCount="indefinite"/>
      await SQLite.sync();
    </text>
  </g>


  <g fill="none" stroke="url(#lineGrad)" stroke-width="2">
    <path d="M1080,580 H1400"/>
    <path d="M1240,580 C1260,580 1260,565 1290,565 H1360 C1380,565 1380,580 1400,580"/>
  </g>
  <g fill="#3B82F6">
    <circle cx="1100" cy="580" r="4"/>
    <circle cx="1380" cy="580" r="4" fill="#8B5CF6"/>
  </g>
  <g fill="#06B6D4">
    <circle cx="1290" cy="565" r="4"/>
    <circle cx="1360" cy="565" r="4"/>
  </g>
  <g fill="#8B5CF6">
    <circle cx="1240" cy="580" r="4"/>
    <circle cx="1400" cy="580" r="4"/>
  </g>
  </g>
</svg>
